<svg width="20" height="20" viewBox="0 0 20 20" fill="none" xmlns="http://www.w3.org/2000/svg">
<g id="information-line">
<path id="Vector" d="M9.99996 18.3333C5.39758 18.3333 1.66663 14.6023 1.66663 9.99996C1.66663 5.39758 5.39758 1.66663 9.99996 1.66663C14.6023 1.66663 18.3333 5.39758 18.3333 9.99996C18.3333 14.6023 14.6023 18.3333 9.99996 18.3333ZM9.99996 16.6666C13.6819 16.6666 16.6666 13.6819 16.6666 9.99996C16.6666 6.31806 13.6819 3.33329 9.99996 3.33329C6.31806 3.33329 3.33329 6.31806 3.33329 9.99996C3.33329 13.6819 6.31806 16.6666 9.99996 16.6666ZM9.16663 5.83329H10.8333V7.49996H9.16663V5.83329ZM9.16663 9.16663H10.8333V14.1666H9.16663V9.16663Z" fill="#FFEF5B"/>
</g>
</svg>
