<svg width="20" height="20" viewBox="0 0 20 20" fill="none" xmlns="http://www.w3.org/2000/svg">
<g id="at-line">
<path id="Vector" d="M16.6666 9.99996C16.6666 6.31806 13.6819 3.33329 9.99996 3.33329C6.31806 3.33329 3.33329 6.31806 3.33329 9.99996C3.33329 13.6819 6.31806 16.6666 9.99996 16.6666C11.3681 16.6666 12.64 16.2545 13.6984 15.5475L14.623 16.9345C13.3001 17.8181 11.7102 18.3333 9.99996 18.3333C5.39758 18.3333 1.66663 14.6023 1.66663 9.99996C1.66663 5.39758 5.39758 1.66663 9.99996 1.66663C14.6023 1.66663 18.3333 5.39758 18.3333 9.99996V11.25C18.3333 12.8608 17.0275 14.1666 15.4166 14.1666C14.4131 14.1666 13.528 13.6598 13.0031 12.8882C12.2451 13.6762 11.1798 14.1666 9.99996 14.1666C7.69878 14.1666 5.83329 12.3011 5.83329 9.99996C5.83329 7.69878 7.69878 5.83329 9.99996 5.83329C10.9381 5.83329 11.8039 6.14337 12.5004 6.66663H14.1666V11.25C14.1666 11.9403 14.7263 12.5 15.4166 12.5C16.107 12.5 16.6666 11.9403 16.6666 11.25V9.99996ZM9.99996 7.49996C8.61921 7.49996 7.49996 8.61921 7.49996 9.99996C7.49996 11.3807 8.61921 12.5 9.99996 12.5C11.3807 12.5 12.5 11.3807 12.5 9.99996C12.5 8.61921 11.3807 7.49996 9.99996 7.49996Z" fill="#5BD7FF"/>
</g>
</svg>
