<svg width="20" height="20" viewBox="0 0 20 20" fill="none" xmlns="http://www.w3.org/2000/svg">
<g id="camera-line">
<path id="Vector" d="M8.19032 4.16667L6.52365 5.83333H3.33329V15.8333H16.6666V5.83333H13.4763L11.8096 4.16667H8.19032ZM7.49996 2.5H12.5L14.1666 4.16667H17.5C17.9602 4.16667 18.3333 4.53977 18.3333 5V16.6667C18.3333 17.1269 17.9602 17.5 17.5 17.5H2.49996C2.03973 17.5 1.66663 17.1269 1.66663 16.6667V5C1.66663 4.53977 2.03973 4.16667 2.49996 4.16667H5.83329L7.49996 2.5ZM9.99996 15C7.46865 15 5.41663 12.948 5.41663 10.4167C5.41663 7.88536 7.46865 5.83333 9.99996 5.83333C12.5313 5.83333 14.5833 7.88536 14.5833 10.4167C14.5833 12.948 12.5313 15 9.99996 15ZM9.99996 13.3333C11.6108 13.3333 12.9166 12.0275 12.9166 10.4167C12.9166 8.80583 11.6108 7.5 9.99996 7.5C8.38913 7.5 7.08329 8.80583 7.08329 10.4167C7.08329 12.0275 8.38913 13.3333 9.99996 13.3333Z" fill="#5BD7FF"/>
</g>
</svg>
