<svg width="27" height="27" viewBox="0 0 27 27" fill="none" xmlns="http://www.w3.org/2000/svg">
<g id="home-2 1">
<path id="Vector" d="M22.5452 7.67435L16.0652 3.1406C14.299 1.9031 11.5877 1.9706 9.88901 3.28685L4.25276 7.6856C3.12776 8.5631 2.23901 10.3631 2.23901 11.7805V19.543C2.23901 22.4118 4.56776 24.7518 7.43651 24.7518H19.564C22.4327 24.7518 24.7615 22.423 24.7615 19.5543V11.9268C24.7615 10.4081 23.7827 8.5406 22.5452 7.67435ZM14.344 20.2518C14.344 20.713 13.9615 21.0955 13.5002 21.0955C13.039 21.0955 12.6565 20.713 12.6565 20.2518V16.8768C12.6565 16.4155 13.039 16.033 13.5002 16.033C13.9615 16.033 14.344 16.4155 14.344 16.8768V20.2518Z" fill="white"/>
</g>
</svg>
