<svg width="20" height="20" viewBox="0 0 20 20" fill="none" xmlns="http://www.w3.org/2000/svg">
<g id="lock-line">
<path id="Vector" d="M15.8333 8.33329H16.6667C17.1269 8.33329 17.5 8.70638 17.5 9.16663V17.5C17.5 17.9602 17.1269 18.3333 16.6667 18.3333H3.33333C2.8731 18.3333 2.5 17.9602 2.5 17.5V9.16663C2.5 8.70638 2.8731 8.33329 3.33333 8.33329H4.16667V7.49996C4.16667 4.2783 6.77834 1.66663 10 1.66663C13.2217 1.66663 15.8333 4.2783 15.8333 7.49996V8.33329ZM4.16667 9.99996V16.6666H15.8333V9.99996H4.16667ZM9.16667 11.6666H10.8333V15H9.16667V11.6666ZM14.1667 8.33329V7.49996C14.1667 5.19878 12.3012 3.33329 10 3.33329C7.69882 3.33329 5.83333 5.19878 5.83333 7.49996V8.33329H14.1667Z" fill="#5BD7FF"/>
</g>
</svg>
