<svg width="27" height="27" viewBox="0 0 27 27" fill="none" xmlns="http://www.w3.org/2000/svg">
<g id="setting-2 1">
<path id="Vector" d="M22.6125 10.3741C20.5763 10.3741 19.7438 8.93408 20.7563 7.16783C21.3413 6.14408 20.9925 4.83908 19.9688 4.25408L18.0225 3.14033C17.1338 2.61158 15.9862 2.92658 15.4575 3.81533L15.3337 4.02908C14.3212 5.79533 12.6562 5.79533 11.6325 4.02908L11.5087 3.81533C11.0025 2.92658 9.855 2.61158 8.96625 3.14033L7.02 4.25408C5.99625 4.83908 5.6475 6.15533 6.2325 7.17908C7.25625 8.93408 6.42375 10.3741 4.3875 10.3741C3.2175 10.3741 2.25 11.3303 2.25 12.5116V14.4916C2.25 15.6616 3.20625 16.6291 4.3875 16.6291C6.42375 16.6291 7.25625 18.0691 6.2325 19.8353C5.6475 20.8591 5.99625 22.1641 7.02 22.7491L8.96625 23.8628C9.855 24.3916 11.0025 24.0766 11.5312 23.1878L11.655 22.9741C12.6675 21.2078 14.3325 21.2078 15.3562 22.9741L15.48 23.1878C16.0087 24.0766 17.1563 24.3916 18.045 23.8628L19.9913 22.7491C21.015 22.1641 21.3637 20.8478 20.7787 19.8353C19.755 18.0691 20.5875 16.6291 22.6238 16.6291C23.7938 16.6291 24.7612 15.6728 24.7612 14.4916V12.5116C24.75 11.3416 23.7938 10.3741 22.6125 10.3741ZM13.5 17.1578C11.4862 17.1578 9.84375 15.5153 9.84375 13.5016C9.84375 11.4878 11.4862 9.84533 13.5 9.84533C15.5138 9.84533 17.1562 11.4878 17.1562 13.5016C17.1562 15.5153 15.5138 17.1578 13.5 17.1578Z" fill="white"/>
</g>
</svg>
