<svg width="20" height="20" viewBox="0 0 20 20" fill="none" xmlns="http://www.w3.org/2000/svg">
<g id="ticket-line">
<path id="Vector" d="M17.5041 2.5C17.9644 2.5 18.3375 2.8731 18.3375 3.33333V7.91667C17.1869 7.91667 16.2541 8.84942 16.2541 10C16.2541 11.1506 17.1869 12.0833 18.3375 12.0833V16.6667C18.3375 17.1269 17.9644 17.5 17.5041 17.5H2.50411C2.04388 17.5 1.67078 17.1269 1.67078 16.6667V12.0833C2.82137 12.0833 3.75411 11.1506 3.75411 10C3.75411 8.84942 2.82137 7.91667 1.67078 7.91667V3.33333C1.67078 2.8731 2.04388 2.5 2.50411 2.5H17.5041ZM16.6708 4.16667H3.33744V6.64L3.46735 6.70757C4.58283 7.31754 5.35434 8.47792 5.41669 9.8235L5.42078 10C5.42078 11.4202 4.63133 12.6559 3.46735 13.2924L3.33744 13.3592V15.8333H16.6708V13.3592L16.5409 13.2924C15.4254 12.6825 14.6539 11.5221 14.5915 10.1765L14.5875 10C14.5875 8.57983 15.3769 7.34406 16.5409 6.70757L16.6708 6.64V4.16667Z" fill="#007C4D"/>
</g>
</svg>
